<svg width="56" height="56" viewBox="0 0 56 56" fill="none" xmlns="http://www.w3.org/2000/svg" role="img" aria-label="Dano Assistant">
  <rect width="56" height="56" rx="18" fill="url(#paint0_linear)"/>
  <path d="M17 31.8C17 23.7 23.6 17 31.8 17H39C39.6 17 40 17.4 40 18V25.2C40 33.4 33.4 40 25.2 40H18C17.4 40 17 39.6 17 39V31.8Z" fill="white" fill-opacity="0.96"/>
  <path d="M31.5 18.2C29.1 23.2 25 27.3 20 29.7C21.6 23.9 25.7 19.8 31.5 18.2Z" fill="#7C3AED" fill-opacity="0.9"/>
  <circle cx="31" cy="28" r="2.2" fill="#2563EB"/>
  <circle cx="24" cy="31" r="2.2" fill="#2563EB"/>
  <path d="M36.5 35.5C39.2 34.8 41.5 36.9 41.5 39.4C41.5 41.6 39.7 43.4 37.5 43.4H34.8L30.8 46V43.4H29.5C27.3 43.4 25.5 41.6 25.5 39.4C25.5 37.5 26.8 35.9 28.5 35.5" stroke="white" stroke-width="2.4" stroke-linecap="round" stroke-linejoin="round"/>
  <defs>
    <linearGradient id="paint0_linear" x1="8" y1="4" x2="50" y2="53" gradientUnits="userSpaceOnUse">
      <stop stop-color="#2563EB"/>
      <stop offset="1" stop-color="#7C3AED"/>
    </linearGradient>
  </defs>
</svg>
